<mxfile host="app.diagrams.net" modified="2022-05-23T07:09:24.247Z" agent="5.0 (Windows)" etag="fnXGPp_Z7IH0CYlmegc9" version="18.1.1" type="github">
  <diagram id="h7X7SWJGngGB0yG9JiUe" name="Page-1">
    <mxGraphModel dx="865" dy="406" grid="1" gridSize="10" guides="1" tooltips="1" connect="1" arrows="1" fold="1" page="1" pageScale="1" pageWidth="827" pageHeight="1169" math="0" shadow="0">
      <root>
        <mxCell id="0" />
        <mxCell id="1" parent="0" />
        <mxCell id="bEv7xueEsm1a3UQtVlKj-1" value="2*x == y" style="rhombus;whiteSpace=wrap;html=1;fillColor=#ffe6cc;strokeColor=#d79b00;" vertex="1" parent="1">
          <mxGeometry x="280" y="140" width="90" height="60" as="geometry" />
        </mxCell>
        <mxCell id="bEv7xueEsm1a3UQtVlKj-2" value="&lt;div&gt;x&amp;nbsp; = 2&lt;br&gt;&lt;/div&gt;&lt;div&gt;y&amp;nbsp; = 1&lt;br&gt;&lt;/div&gt;" style="rounded=1;whiteSpace=wrap;html=1;fillColor=#d5e8d4;strokeColor=#82b366;" vertex="1" parent="1">
          <mxGeometry x="290" y="260" width="70" height="40" as="geometry" />
        </mxCell>
        <mxCell id="bEv7xueEsm1a3UQtVlKj-3" value="&lt;div&gt;x&amp;nbsp; = 30&lt;br&gt;&lt;/div&gt;&lt;div&gt;y&amp;nbsp; = 15&lt;br&gt;&lt;/div&gt;" style="rounded=1;whiteSpace=wrap;html=1;fillColor=#d5e8d4;strokeColor=#82b366;" vertex="1" parent="1">
          <mxGeometry x="440" y="260" width="70" height="40" as="geometry" />
        </mxCell>
        <mxCell id="bEv7xueEsm1a3UQtVlKj-4" value="&lt;div&gt;x&amp;nbsp; = 0&lt;/div&gt;&lt;div&gt;y&amp;nbsp; = 1&lt;br&gt;&lt;/div&gt;" style="rounded=1;whiteSpace=wrap;html=1;fillColor=#d5e8d4;strokeColor=#82b366;" vertex="1" parent="1">
          <mxGeometry x="210" y="200" width="70" height="40" as="geometry" />
        </mxCell>
        <mxCell id="bEv7xueEsm1a3UQtVlKj-5" value="x &amp;gt; y+10" style="rhombus;whiteSpace=wrap;html=1;fillColor=#ffe6cc;strokeColor=#d79b00;" vertex="1" parent="1">
          <mxGeometry x="350" y="200" width="90" height="60" as="geometry" />
        </mxCell>
        <mxCell id="bEv7xueEsm1a3UQtVlKj-7" value="" style="endArrow=classic;html=1;rounded=0;exitX=1;exitY=0.5;exitDx=0;exitDy=0;entryX=0.5;entryY=0;entryDx=0;entryDy=0;" edge="1" parent="1" source="bEv7xueEsm1a3UQtVlKj-1" target="bEv7xueEsm1a3UQtVlKj-5">
          <mxGeometry width="50" height="50" relative="1" as="geometry">
            <mxPoint x="420" y="190" as="sourcePoint" />
            <mxPoint x="470" y="140" as="targetPoint" />
          </mxGeometry>
        </mxCell>
        <mxCell id="bEv7xueEsm1a3UQtVlKj-9" value="" style="endArrow=classic;html=1;rounded=0;exitX=0;exitY=0.5;exitDx=0;exitDy=0;entryX=0.5;entryY=0;entryDx=0;entryDy=0;" edge="1" parent="1" source="bEv7xueEsm1a3UQtVlKj-1" target="bEv7xueEsm1a3UQtVlKj-4">
          <mxGeometry width="50" height="50" relative="1" as="geometry">
            <mxPoint x="200" y="160" as="sourcePoint" />
            <mxPoint x="250" y="110" as="targetPoint" />
          </mxGeometry>
        </mxCell>
        <mxCell id="bEv7xueEsm1a3UQtVlKj-10" value="" style="endArrow=classic;html=1;rounded=0;exitX=0;exitY=0.5;exitDx=0;exitDy=0;entryX=0.5;entryY=0;entryDx=0;entryDy=0;" edge="1" parent="1" source="bEv7xueEsm1a3UQtVlKj-5" target="bEv7xueEsm1a3UQtVlKj-2">
          <mxGeometry width="50" height="50" relative="1" as="geometry">
            <mxPoint x="370" y="400" as="sourcePoint" />
            <mxPoint x="420" y="350" as="targetPoint" />
          </mxGeometry>
        </mxCell>
        <mxCell id="bEv7xueEsm1a3UQtVlKj-11" value="" style="endArrow=classic;html=1;rounded=0;exitX=1;exitY=0.5;exitDx=0;exitDy=0;entryX=0.5;entryY=0;entryDx=0;entryDy=0;" edge="1" parent="1" source="bEv7xueEsm1a3UQtVlKj-5" target="bEv7xueEsm1a3UQtVlKj-3">
          <mxGeometry width="50" height="50" relative="1" as="geometry">
            <mxPoint x="510" y="220" as="sourcePoint" />
            <mxPoint x="560" y="170" as="targetPoint" />
          </mxGeometry>
        </mxCell>
        <mxCell id="bEv7xueEsm1a3UQtVlKj-12" value="&lt;font color=&quot;#FF5736&quot;&gt;ERROR!&lt;/font&gt;" style="text;html=1;strokeColor=none;fillColor=none;align=center;verticalAlign=middle;whiteSpace=wrap;rounded=0;" vertex="1" parent="1">
          <mxGeometry x="445" y="295" width="60" height="30" as="geometry" />
        </mxCell>
        <mxCell id="bEv7xueEsm1a3UQtVlKj-13" value="true" style="text;html=1;strokeColor=none;fillColor=none;align=center;verticalAlign=middle;whiteSpace=wrap;rounded=0;fontColor=#33001A;" vertex="1" parent="1">
          <mxGeometry x="446" y="227" width="40" height="20" as="geometry" />
        </mxCell>
        <mxCell id="bEv7xueEsm1a3UQtVlKj-14" value="false" style="text;html=1;strokeColor=none;fillColor=none;align=center;verticalAlign=middle;whiteSpace=wrap;rounded=0;fontColor=#33001A;" vertex="1" parent="1">
          <mxGeometry x="305" y="230" width="40" height="20" as="geometry" />
        </mxCell>
        <mxCell id="bEv7xueEsm1a3UQtVlKj-15" value="false" style="text;html=1;strokeColor=none;fillColor=none;align=center;verticalAlign=middle;whiteSpace=wrap;rounded=0;fontColor=#33001A;" vertex="1" parent="1">
          <mxGeometry x="225" y="165" width="40" height="20" as="geometry" />
        </mxCell>
        <mxCell id="bEv7xueEsm1a3UQtVlKj-16" value="true" style="text;html=1;strokeColor=none;fillColor=none;align=center;verticalAlign=middle;whiteSpace=wrap;rounded=0;fontColor=#33001A;" vertex="1" parent="1">
          <mxGeometry x="385" y="175" width="40" height="20" as="geometry" />
        </mxCell>
        <mxCell id="bEv7xueEsm1a3UQtVlKj-17" value="" style="endArrow=classic;html=1;rounded=0;fontColor=#33001A;entryX=0.5;entryY=0;entryDx=0;entryDy=0;" edge="1" parent="1" target="bEv7xueEsm1a3UQtVlKj-1">
          <mxGeometry width="50" height="50" relative="1" as="geometry">
            <mxPoint x="325" y="110" as="sourcePoint" />
            <mxPoint x="320" y="90" as="targetPoint" />
          </mxGeometry>
        </mxCell>
      </root>
    </mxGraphModel>
  </diagram>
</mxfile>
